<svg xmlns="http://www.w3.org/2000/svg" viewBox="0 0 1024 1024">
  <rect width="1024" height="1024" rx="200" fill="#07C160"/>
  <path d="M365.8 335.5c-112.6 0-204 84.7-204 189.2 0 60 30.7 113.8 79.1 150.3 3.6 2.7 5.7 7.1 5.2 11.6l-11.8 42.6c-2.3 8.3 6.6 15.6 14 11.5l50.4-27.9c4-2.2 8.7-2.6 13.1-1.1 17.1 5.8 35.4 9 54.3 9 5.3 0 10.6-0.2 15.8-0.7-3.9-14-6-28.7-6-43.9 0-101.9 96.6-184.5 215.7-184.5 9.7 0 19.3 0.6 28.7 1.6-29.6-94.8-124-157.7-254.5-157.7zM294.5 448c-14.8 0-26.8-11.2-26.8-25s12-25 26.8-25 26.8 11.2 26.8 25-12 25-26.8 25z m142.6 0c-14.8 0-26.8-11.2-26.8-25s12-25 26.8-25 26.8 11.2 26.8 25-12 25-26.8 25z" fill="#fff"/>
  <path d="M722.2 505.3c-99.3 0-179.8 69-179.8 154.1 0 85.1 80.5 154.1 179.8 154.1 15.6 0 30.7-1.7 45.3-4.9 3.8-0.8 7.8-0.3 11.3 1.5l38.8 19.9c6.4 3.3 13.9-2.3 12.5-9.4l-7.7-37.4c-1-4.7 1.4-9.5 5.7-11.9 38.3-21.7 64-59.5 64-101.9 0-85.1-80.5-154.1-179.9-154.1zM668.6 612.9c-11.9 0-21.5-9.1-21.5-20.3s9.6-20.3 21.5-20.3c11.9 0 21.5 9.1 21.5 20.3s-9.6 20.3-21.5 20.3z m107.2 0c-11.9 0-21.5-9.1-21.5-20.3s9.6-20.3 21.5-20.3c11.9 0 21.5 9.1 21.5 20.3s-9.6 20.3-21.5 20.3z" fill="#fff"/>
</svg>